<?xml version="1.0" encoding="iso-8859-1"?>
<!-- Generator: Adobe Illustrator 19.0.0, SVG Export Plug-In . SVG Version: 6.00 Build 0)  -->
<svg version="1.1" id="Capa_1" xmlns="http://www.w3.org/2000/svg" xmlns:xlink="http://www.w3.org/1999/xlink" x="0px" y="0px"
	 viewBox="0 0 56 56" style="enable-background:new 0 0 56 56;transform: rotate(90deg);" xml:space="preserve">
<path style="fill:#CFBC81;" d="M50,42.5c-2.972,0-5.433,2.163-5.91,5H44v-40H26.222L24,12.5l-2-5h-2.667L18,10.5l-1.2-3H12v40h-0.09
	c-0.477-2.837-2.938-5-5.91-5c-3.314,0-6,2.686-6,6c0,3.286,2.642,5.951,5.918,5.996V54.5H12h3h9.778l2.222-5l2,5h2.667l1.333-3
	l1.2,3H41h3h6.082v-0.004C53.358,54.451,56,51.786,56,48.5C56,45.186,53.314,42.5,50,42.5z"/>
<g>
	<path style="fill:#977C43;" d="M50,42.5c3.314,0,6,2.686,6,6v-41c0-3.314-2.686-6-6-6s-6,2.686-6,6v41
		C44,45.186,46.686,42.5,50,42.5z"/>
	<path style="fill:#977C43;" d="M6,42.5c3.314,0,6,2.686,6,6v-41c0-3.314-2.686-6-6-6s-6,2.686-6,6v41C0,45.186,2.686,42.5,6,42.5z"
		/>
</g>
<g>
	<path style="fill:#977C43;" d="M33,12.5c0,0.552,0.447,1,1,1s1-0.448,1-1v-5h-2V12.5z"/>
	<path style="fill:#977C43;" d="M37,7.5v3c0,0.552,0.447,1,1,1s1-0.448,1-1v-3H37z"/>
	<path style="fill:#977C43;" d="M17,48.5c-0.553,0-1,0.448-1,1v5h2v-5C18,48.948,17.553,48.5,17,48.5z"/>
	<path style="fill:#977C43;" d="M21,51.5c-0.553,0-1,0.448-1,1v2h2v-2C22,51.948,21.553,51.5,21,51.5z"/>
</g>
</svg>
