<?xml version="1.0" encoding="iso-8859-1"?>
<!-- Generator: Adobe Illustrator 19.0.0, SVG Export Plug-In . SVG Version: 6.00 Build 0)  -->
<svg version="1.1" id="Layer_1" xmlns="http://www.w3.org/2000/svg" xmlns:xlink="http://www.w3.org/1999/xlink" x="0px" y="0px"
	 viewBox="0 0 370 370" style="enable-background:new 0 0 370 370;" xml:space="preserve">
<g id="XMLID_535_">
	<g>
		<g>
			<path d="M94.997,93c14.442,0,22.123-5.462,28.294-9.851c5.207-3.703,8.647-6.149,16.704-6.149s11.497,2.446,16.704,6.149
				C162.87,87.538,170.55,93,184.994,93c14.443,0,22.123-5.462,28.293-9.851c5.208-3.703,8.647-6.149,16.704-6.149
				c8.059,0,11.5,2.446,16.708,6.15c6.172,4.388,13.854,9.85,28.297,9.85s22.125-5.462,28.297-9.851
				C308.501,79.446,311.941,77,320,77V57c-14.443,0-22.125,5.462-28.297,9.851C286.495,70.554,283.055,73,274.996,73
				c-8.058,0-11.499-2.446-16.707-6.149C252.117,62.462,244.436,57,229.991,57c-14.442,0-22.123,5.462-28.295,9.851
				C196.489,70.554,193.05,73,184.994,73c-8.057,0-11.497-2.446-16.705-6.149C162.118,62.462,154.437,57,139.994,57
				s-22.123,5.462-28.294,9.851C106.493,70.554,103.053,73,94.997,73c-8.056,0-11.496-2.446-16.703-6.149
				C72.123,62.462,64.442,57,50,57v20c8.056,0,11.496,2.446,16.703,6.149C72.874,87.538,80.554,93,94.997,93z"/>
			<path d="M334.56,139.457c-7.111,3.689-13.252,6.876-26.229,6.876s-19.118-3.187-26.229-6.876
				c-8.241-4.276-17.583-9.124-35.44-9.124s-27.198,4.848-35.44,9.124c-7.109,3.689-13.25,6.876-26.227,6.876
				c-12.976,0-19.117-3.187-26.227-6.876c-8.241-4.276-17.582-9.124-35.439-9.124c-17.856,0-27.196,4.848-35.438,9.124
				c-7.109,3.689-13.25,6.876-26.225,6.876c-12.976,0-19.117-3.187-26.227-6.876c-8.241-4.276-17.582-9.124-35.438-9.124v20
				c12.976,0,19.117,3.187,26.227,6.876c8.241,4.276,17.582,9.124,35.438,9.124c17.856,0,27.196-4.848,35.438-9.124
				c7.109-3.689,13.25-6.876,26.225-6.876c12.977,0,19.117,3.187,26.227,6.876c8.241,4.276,17.582,9.124,35.438,9.124
				c17.857,0,27.198-4.848,35.439-9.124c7.11-3.689,13.252-6.876,26.229-6.876c12.978,0,19.118,3.187,26.229,6.876
				c8.241,4.276,17.583,9.124,35.44,9.124s27.199-4.848,35.44-9.124c7.111-3.689,13.252-6.876,26.229-6.876v-20
				C352.143,130.333,342.801,135.181,334.56,139.457z"/>
			<path d="M308.33,293c-12.978,0-19.118-3.187-26.229-6.876c-8.241-4.276-17.583-9.124-35.44-9.124s-27.198,4.848-35.44,9.124
				c-7.109,3.689-13.25,6.876-26.227,6.876c-12.976,0-19.117-3.187-26.227-6.876c-8.241-4.276-17.582-9.124-35.439-9.124
				c-17.856,0-27.196,4.848-35.438,9.124C80.78,289.813,74.64,293,61.665,293c-12.976,0-19.117-3.187-26.227-6.876
				C27.197,281.848,17.856,277,0,277v20c12.976,0,19.117,3.187,26.227,6.876C34.468,308.152,43.809,313,61.665,313
				c17.856,0,27.196-4.848,35.438-9.124c7.109-3.689,13.25-6.876,26.225-6.876c12.977,0,19.117,3.187,26.227,6.876
				c8.241,4.276,17.582,9.124,35.438,9.124c17.857,0,27.198-4.848,35.439-9.124c7.11-3.689,13.252-6.876,26.229-6.876
				c12.978,0,19.118,3.187,26.229,6.876c8.241,4.276,17.583,9.124,35.44,9.124s27.199-4.848,35.44-9.124
				C350.882,300.187,357.022,297,370,297v-20c-17.857,0-27.199,4.848-35.44,9.124C327.448,289.813,321.308,293,308.33,293z"/>
			<path d="M94.997,239.667c14.442,0,22.123-5.462,28.294-9.851c5.207-3.703,8.647-6.149,16.704-6.149s11.497,2.446,16.704,6.149
				c6.172,4.389,13.852,9.851,28.295,9.851s22.123-5.462,28.293-9.851c5.208-3.703,8.647-6.149,16.704-6.149
				c8.059,0,11.5,2.446,16.708,6.15c6.172,4.388,13.854,9.85,28.297,9.85s22.125-5.462,28.297-9.851
				c5.208-3.703,8.648-6.149,16.707-6.149v-20c-14.443,0-22.125,5.462-28.297,9.851c-5.208,3.703-8.648,6.149-16.707,6.149
				c-8.058,0-11.499-2.446-16.707-6.149c-6.172-4.389-13.854-9.851-28.298-9.851c-14.442,0-22.123,5.462-28.295,9.851
				c-5.207,3.703-8.646,6.149-16.703,6.149s-11.497-2.446-16.705-6.149c-6.171-4.389-13.852-9.851-28.295-9.851
				s-22.123,5.462-28.294,9.851c-5.207,3.703-8.647,6.149-16.703,6.149s-11.496-2.446-16.703-6.149
				c-6.171-4.389-13.852-9.851-28.294-9.851v20c8.056,0,11.496,2.446,16.703,6.149C72.874,234.205,80.554,239.667,94.997,239.667z"
				/>
		</g>
	</g>
</g>
</svg>
