<?xml version="1.0" encoding="UTF-8" standalone="no" ?>
<!DOCTYPE svg PUBLIC "-//W3C//DTD SVG 1.1//EN" "http://www.w3.org/Graphics/SVG/1.1/DTD/svg11.dtd">
<svg xmlns="http://www.w3.org/2000/svg" xmlns:xlink="http://www.w3.org/1999/xlink" version="1.1" viewBox="0 0 680 680" xml:space="preserve">
<desc>Created with Fabric.js 3.6.3</desc>
<defs>
</defs>
<g transform="matrix(21.25 0 0 21.25 340.25 398.75)"  >
<g style=""   >
		<g transform="matrix(1 0 0 1 -14.09 -1.95)"  >
<path style="stroke: none; stroke-width: 1; stroke-dasharray: none; stroke-linecap: butt; stroke-dashoffset: 0; stroke-linejoin: miter; stroke-miterlimit: 4; fill: rgb(0,0,0); fill-rule: nonzero; opacity: 1;"  transform=" translate(-1.72, -13.87)" d="M 3.196 16.127 c 0 0 0.589 -1.382 -0.406 -2.824 c -0.996 -1.443 -2.501 -1.696 -2.501 -1.696 s -0.647 1.634 0.323 3.038 C 1.583 16.054 3.196 16.127 3.196 16.127 z" stroke-linecap="round" />
</g>
		<g transform="matrix(1 0 0 1 -9.13 -2.11)"  >
<path style="stroke: none; stroke-width: 1; stroke-dasharray: none; stroke-linecap: butt; stroke-dashoffset: 0; stroke-linejoin: miter; stroke-miterlimit: 4; fill: rgb(0,0,0); fill-rule: nonzero; opacity: 1;"  transform=" translate(-6.68, -13.71)" d="M 5.882 16.292 c 0 0 1.523 -0.533 2.049 -2.16 c 0.527 -1.624 -0.563 -3.001 -0.563 -3.001 S 6 11.804 5.459 13.472 C 4.92 15.139 5.882 16.292 5.882 16.292 z" stroke-linecap="round" />
</g>
		<g transform="matrix(1 0 0 1 -8.03 2.36)"  >
<path style="stroke: none; stroke-width: 1; stroke-dasharray: none; stroke-linecap: butt; stroke-dashoffset: 0; stroke-linejoin: miter; stroke-miterlimit: 4; fill: rgb(0,0,0); fill-rule: nonzero; opacity: 1;"  transform=" translate(-7.79, -18.18)" d="M 6.522 18.091 c -0.316 1.725 0.787 2.741 0.787 2.741 s 1.441 -0.729 1.752 -2.408 c 0.307 -1.682 -0.953 -2.903 -0.953 -2.903 S 6.841 16.366 6.522 18.091 z" stroke-linecap="round" />
</g>
		<g transform="matrix(1 0 0 1 -5.52 5.26)"  >
<path style="stroke: none; stroke-width: 1; stroke-dasharray: none; stroke-linecap: butt; stroke-dashoffset: 0; stroke-linejoin: miter; stroke-miterlimit: 4; fill: rgb(0,0,0); fill-rule: nonzero; opacity: 1;"  transform=" translate(-10.31, -21.09)" d="M 10.069 23.767 c 0 0 1.367 -0.861 1.518 -2.562 c 0.148 -1.701 -1.221 -2.801 -1.221 -2.801 s -1.184 0.961 -1.338 2.707 C 8.875 22.856 10.069 23.767 10.069 23.767 z" stroke-linecap="round" />
</g>
		<g transform="matrix(1 0 0 1 -2.66 8.07)"  >
<path style="stroke: none; stroke-width: 1; stroke-dasharray: none; stroke-linecap: butt; stroke-dashoffset: 0; stroke-linejoin: miter; stroke-miterlimit: 4; fill: rgb(0,0,0); fill-rule: nonzero; opacity: 1;"  transform=" translate(-13.16, -23.89)" d="M 13.692 26.503 c 0 0 1.062 -1.219 0.716 -2.891 c -0.348 -1.674 -1.976 -2.332 -1.976 -2.332 s -0.857 1.263 -0.502 2.979 C 12.286 25.976 13.692 26.503 13.692 26.503 z" stroke-linecap="round" />
</g>
		<g transform="matrix(1 0 0 1 -11.49 -5.97)"  >
<path style="stroke: none; stroke-width: 1; stroke-dasharray: none; stroke-linecap: butt; stroke-dashoffset: 0; stroke-linejoin: miter; stroke-miterlimit: 4; fill: rgb(0,0,0); fill-rule: nonzero; opacity: 1;"  transform=" translate(-4.33, -9.85)" d="M 4.375 12.533 c 0 0 1.257 -0.821 1.229 -2.574 c -0.027 -1.751 -1.14 -2.798 -1.14 -2.798 S 3.021 8.16 3.048 9.869 C 3.075 11.577 4.375 12.533 4.375 12.533 z" stroke-linecap="round" />
</g>
		<g transform="matrix(1 0 0 1 -13.76 2.11)"  >
<path style="stroke: none; stroke-width: 1; stroke-dasharray: none; stroke-linecap: butt; stroke-dashoffset: 0; stroke-linejoin: miter; stroke-miterlimit: 4; fill: rgb(0,0,0); fill-rule: nonzero; opacity: 1;"  transform=" translate(-2.06, -17.93)" d="M 4.114 19.625 c 0 0 0.154 -1.492 -1.221 -2.577 c -1.377 -1.086 -2.889 -0.883 -2.889 -0.883 s -0.139 1.752 1.203 2.809 C 2.55 20.032 4.114 19.625 4.114 19.625 z" stroke-linecap="round" />
</g>
		<g transform="matrix(1 0 0 1 -12.01 5.94)"  >
<path style="stroke: none; stroke-width: 1; stroke-dasharray: none; stroke-linecap: butt; stroke-dashoffset: 0; stroke-linejoin: miter; stroke-miterlimit: 4; fill: rgb(0,0,0); fill-rule: nonzero; opacity: 1;"  transform=" translate(-3.81, -21.76)" d="M 6.199 22.915 c 0 0 -0.182 -1.491 -1.763 -2.243 c -1.584 -0.753 -3.013 -0.218 -3.013 -0.218 s 0.255 1.736 1.796 2.47 C 4.764 23.657 6.199 22.915 6.199 22.915 z" stroke-linecap="round" />
</g>
		<g transform="matrix(1 0 0 1 -9.75 9.25)"  >
<path style="stroke: none; stroke-width: 1; stroke-dasharray: none; stroke-linecap: butt; stroke-dashoffset: 0; stroke-linejoin: miter; stroke-miterlimit: 4; fill: rgb(0,0,0); fill-rule: nonzero; opacity: 1;"  transform=" translate(-6.07, -25.07)" d="M 6.358 23.821 c -1.736 -0.237 -2.938 0.701 -2.938 0.701 s 0.77 1.58 2.462 1.813 c 1.692 0.231 2.834 -0.911 2.834 -0.911 S 8.095 24.06 6.358 23.821 z" stroke-linecap="round" />
</g>
		<g transform="matrix(1 0 0 1 -6.17 11.92)"  >
<path style="stroke: none; stroke-width: 1; stroke-dasharray: none; stroke-linecap: butt; stroke-dashoffset: 0; stroke-linejoin: miter; stroke-miterlimit: 4; fill: rgb(0,0,0); fill-rule: nonzero; opacity: 1;"  transform=" translate(-9.65, -27.73)" d="M 9.8 26.457 c -1.752 -0.027 -2.83 1.05 -2.83 1.05 s 0.951 1.479 2.659 1.505 c 1.709 0.027 2.706 -1.243 2.706 -1.243 S 11.554 26.485 9.8 26.457 z" stroke-linecap="round" />
</g>
		<g transform="matrix(1 0 0 1 -6.1 5.09)"  >
<path style="stroke: none; stroke-width: 1; stroke-dasharray: none; stroke-linecap: butt; stroke-dashoffset: 0; stroke-linejoin: miter; stroke-miterlimit: 4; fill: rgb(0,0,0); fill-rule: nonzero; opacity: 1;"  transform=" translate(-9.71, -20.91)" d="M 4.803 13.47 l -0.82 -0.166 c -0.018 0.089 -1.667 9 11.177 15.211 l 0.363 -0.752 C 3.294 21.849 4.734 13.81 4.803 13.47 z" stroke-linecap="round" />
</g>
		<g transform="matrix(1 0 0 1 14.1 -1.96)"  >
<path style="stroke: none; stroke-width: 1; stroke-dasharray: none; stroke-linecap: butt; stroke-dashoffset: 0; stroke-linejoin: miter; stroke-miterlimit: 4; fill: rgb(0,0,0); fill-rule: nonzero; opacity: 1;"  transform=" translate(-29.92, -13.86)" d="M 28.444 16.122 c 0 0 1.613 -0.073 2.584 -1.481 c 0.971 -1.404 0.323 -3.038 0.323 -3.038 s -1.505 0.253 -2.501 1.695 C 27.855 14.74 28.444 16.122 28.444 16.122 z" stroke-linecap="round" />
</g>
		<g transform="matrix(1 0 0 1 9.14 -2.11)"  >
<path style="stroke: none; stroke-width: 1; stroke-dasharray: none; stroke-linecap: butt; stroke-dashoffset: 0; stroke-linejoin: miter; stroke-miterlimit: 4; fill: rgb(0,0,0); fill-rule: nonzero; opacity: 1;"  transform=" translate(-24.96, -13.71)" d="M 25.758 16.287 c 0 0 0.963 -1.153 0.424 -2.82 c -0.541 -1.668 -1.909 -2.341 -1.909 -2.341 s -1.09 1.377 -0.563 3.001 C 24.235 15.754 25.758 16.287 25.758 16.287 z" stroke-linecap="round" />
</g>
		<g transform="matrix(1 0 0 1 8.03 2.36)"  >
<path style="stroke: none; stroke-width: 1; stroke-dasharray: none; stroke-linecap: butt; stroke-dashoffset: 0; stroke-linejoin: miter; stroke-miterlimit: 4; fill: rgb(0,0,0); fill-rule: nonzero; opacity: 1;"  transform=" translate(-23.85, -18.17)" d="M 22.579 18.419 c 0.312 1.68 1.752 2.408 1.752 2.408 s 1.104 -1.018 0.787 -2.741 c -0.318 -1.725 -1.586 -2.57 -1.586 -2.57 S 22.272 16.737 22.579 18.419 z" stroke-linecap="round" />
</g>
		<g transform="matrix(1 0 0 1 5.51 5.26)"  >
<path style="stroke: none; stroke-width: 1; stroke-dasharray: none; stroke-linecap: butt; stroke-dashoffset: 0; stroke-linejoin: miter; stroke-miterlimit: 4; fill: rgb(0,0,0); fill-rule: nonzero; opacity: 1;"  transform=" translate(-21.33, -21.08)" d="M 21.274 18.399 c 0 0 -1.369 1.1 -1.222 2.801 c 0.15 1.701 1.519 2.562 1.519 2.562 s 1.194 -0.908 1.041 -2.656 C 22.458 19.358 21.274 18.399 21.274 18.399 z" stroke-linecap="round" />
</g>
		<g transform="matrix(1 0 0 1 2.66 8.07)"  >
<path style="stroke: none; stroke-width: 1; stroke-dasharray: none; stroke-linecap: butt; stroke-dashoffset: 0; stroke-linejoin: miter; stroke-miterlimit: 4; fill: rgb(0,0,0); fill-rule: nonzero; opacity: 1;"  transform=" translate(-18.48, -23.89)" d="M 17.232 23.606 c -0.346 1.672 0.716 2.892 0.716 2.892 s 1.406 -0.527 1.762 -2.244 c 0.355 -1.716 -0.502 -2.979 -0.502 -2.979 S 17.58 21.935 17.232 23.606 z" stroke-linecap="round" />
</g>
		<g transform="matrix(1 0 0 1 11.5 -5.97)"  >
<path style="stroke: none; stroke-width: 1; stroke-dasharray: none; stroke-linecap: butt; stroke-dashoffset: 0; stroke-linejoin: miter; stroke-miterlimit: 4; fill: rgb(0,0,0); fill-rule: nonzero; opacity: 1;"  transform=" translate(-27.31, -9.84)" d="M 27.266 12.528 c 0 0 1.3 -0.956 1.326 -2.664 c 0.027 -1.709 -1.417 -2.708 -1.417 -2.708 s -1.111 1.047 -1.14 2.798 C 26.008 11.707 27.266 12.528 27.266 12.528 z" stroke-linecap="round" />
</g>
		<g transform="matrix(1 0 0 1 13.76 2.1)"  >
<path style="stroke: none; stroke-width: 1; stroke-dasharray: none; stroke-linecap: butt; stroke-dashoffset: 0; stroke-linejoin: miter; stroke-miterlimit: 4; fill: rgb(0,0,0); fill-rule: nonzero; opacity: 1;"  transform=" translate(-29.58, -17.92)" d="M 31.635 16.16 c 0 0 -1.512 -0.203 -2.889 0.883 c -1.375 1.085 -1.221 2.577 -1.221 2.577 s 1.563 0.406 2.906 -0.651 C 31.774 17.912 31.635 16.16 31.635 16.16 z" stroke-linecap="round" />
</g>
		<g transform="matrix(1 0 0 1 12.01 5.93)"  >
<path style="stroke: none; stroke-width: 1; stroke-dasharray: none; stroke-linecap: butt; stroke-dashoffset: 0; stroke-linejoin: miter; stroke-miterlimit: 4; fill: rgb(0,0,0); fill-rule: nonzero; opacity: 1;"  transform=" translate(-27.83, -21.75)" d="M 27.204 20.667 c -1.581 0.752 -1.763 2.243 -1.763 2.243 s 1.436 0.741 2.979 0.009 c 1.541 -0.732 1.796 -2.471 1.796 -2.471 S 28.788 19.914 27.204 20.667 z" stroke-linecap="round" />
</g>
		<g transform="matrix(1 0 0 1 9.75 9.25)"  >
<path style="stroke: none; stroke-width: 1; stroke-dasharray: none; stroke-linecap: butt; stroke-dashoffset: 0; stroke-linejoin: miter; stroke-miterlimit: 4; fill: rgb(0,0,0); fill-rule: nonzero; opacity: 1;"  transform=" translate(-25.57, -25.07)" d="M 25.282 23.815 c -1.736 0.237 -2.358 1.604 -2.358 1.604 s 1.143 1.144 2.834 0.911 c 1.692 -0.233 2.463 -1.812 2.463 -1.812 S 27.019 23.579 25.282 23.815 z" stroke-linecap="round" />
</g>
		<g transform="matrix(1 0 0 1 6.17 11.91)"  >
<path style="stroke: none; stroke-width: 1; stroke-dasharray: none; stroke-linecap: butt; stroke-dashoffset: 0; stroke-linejoin: miter; stroke-miterlimit: 4; fill: rgb(0,0,0); fill-rule: nonzero; opacity: 1;"  transform=" translate(-21.99, -27.73)" d="M 19.306 27.763 c 0 0 0.996 1.271 2.706 1.244 c 1.708 -0.027 2.658 -1.505 2.658 -1.505 s -1.078 -1.077 -2.83 -1.05 C 20.086 26.481 19.306 27.763 19.306 27.763 z" stroke-linecap="round" />
</g>
		<g transform="matrix(1 0 0 1 6.11 5.09)"  >
<path style="stroke: none; stroke-width: 1; stroke-dasharray: none; stroke-linecap: butt; stroke-dashoffset: 0; stroke-linejoin: miter; stroke-miterlimit: 4; fill: rgb(0,0,0); fill-rule: nonzero; opacity: 1;"  transform=" translate(-21.93, -20.9)" d="M 27.658 13.299 l -0.82 0.166 c 0.068 0.34 1.51 8.379 -10.719 14.293 l 0.363 0.752 C 29.325 22.299 27.675 13.388 27.658 13.299 z" stroke-linecap="round" />
</g>
</g>
</g>
<g transform="matrix(0.97 0 0 0.97 340.39 250.11)" id="Layer_1"  >
<path style="stroke: none; stroke-width: 1; stroke-dasharray: none; stroke-linecap: butt; stroke-dashoffset: 0; stroke-linejoin: miter; stroke-miterlimit: 4; fill: rgb(0,0,0); fill-rule: nonzero; opacity: 1;"  transform=" translate(-256, -256)" d="M 435.2 76.8 c -90.743 0 -160.401 -68.608 -161.101 -69.299 C 269.303 2.697 262.793 0 256 0 c -6.784 0 -13.286 2.688 -18.091 7.484 C 236.177 9.182 166.246 76.8 76.8 76.8 c -14.14 0 -25.6 11.46 -25.6 25.6 c 0 320.401 186.769 404.122 194.714 407.526 C 249.139 511.309 252.57 512 256 512 c 3.43 0 6.869 -0.691 10.086 -2.074 C 274.039 506.522 460.8 422.801 460.8 102.4 C 460.8 88.26 449.34 76.8 435.2 76.8 z M 256 486.4 c 0 0 -179.2 -76.8 -179.2 -384 c 102.4 0 179.2 -76.8 179.2 -76.8 s 76.8 76.8 179.2 76.8 C 435.2 409.6 256 486.4 256 486.4 z" stroke-linecap="round" />
</g>
</svg>